<svg width="26" height="26" viewBox="0 0 26 26" fill="none" xmlns="http://www.w3.org/2000/svg">
<path fill-rule="evenodd" clip-rule="evenodd" d="M14.9939 7.51442C14.5939 7.16712 14.3808 6.72495 14.3514 6.19568L14.3509 6.19623C14.3464 6.1208 14.3464 6.04536 14.3464 5.96993V5.96988V2.30881C14.347 1.92822 14.4424 1.57482 14.6599 1.26136C15.0116 0.753731 15.496 0.475226 16.1162 0.441938C16.1806 0.43861 16.2449 0.4375 16.3093 0.4375H23.2653C23.6753 0.4375 24.0508 0.547349 24.3787 0.790902C24.8503 1.14264 25.1077 1.61421 25.1393 2.20506C25.1427 2.27164 25.1438 2.33821 25.1438 2.40479V6.08583C25.1438 6.51468 25.0195 6.90415 24.7543 7.24201C24.4115 7.67919 23.9593 7.91719 23.4034 7.95437C23.3352 7.95936 23.2664 7.95936 23.1976 7.95936H23.1976C22.255 7.95991 21.3118 7.96047 20.3687 7.9588C20.3165 7.9588 20.2788 7.97267 20.2405 8.0104C20.1278 8.12186 20.0155 8.2338 19.9032 8.34575L19.903 8.34592L19.9028 8.34609L19.9027 8.34626L19.9025 8.34643C19.5829 8.66499 19.2633 8.98354 18.9334 9.29086C18.5623 9.63705 18.1157 9.71971 17.6419 9.53829C17.1687 9.35743 16.9007 8.99793 16.8424 8.49307C16.8306 8.39225 16.8314 8.29013 16.8321 8.18796C16.8324 8.14114 16.8328 8.0943 16.8319 8.04757V7.96047L16.6176 7.96059H16.6175H16.6174H16.6174H16.6173C16.4791 7.96072 16.3441 7.96084 16.2089 7.96047C15.7501 7.9588 15.3412 7.81622 14.9939 7.51442ZM23.2714 1.76456H16.2216C15.8971 1.76456 15.6741 1.9887 15.6741 2.3138V6.08805C15.6746 6.40872 15.8987 6.63285 16.2189 6.63285H16.9179C17.1215 6.6323 17.314 6.68001 17.4921 6.77765C17.8938 6.99846 18.1085 7.34409 18.1617 7.79514C18.1705 7.87002 18.1817 7.94466 18.1932 8.02159L18.1932 8.02189C18.1992 8.06171 18.2052 8.10215 18.2111 8.14355L18.2321 8.12516C18.2406 8.11782 18.2473 8.11201 18.2538 8.10582L18.5291 7.83484C18.8042 7.56413 19.0793 7.29341 19.3534 7.02176C19.6147 6.76212 19.9254 6.63063 20.2966 6.63174C21.0051 6.63412 21.7137 6.63367 22.4222 6.63322C22.7056 6.63303 22.9891 6.63285 23.2725 6.63285C23.5926 6.63285 23.8178 6.40927 23.8178 6.08916V2.30826C23.8178 1.98981 23.5915 1.76456 23.2714 1.76456ZM8.9411 20.6474C8.92674 20.6916 8.90687 20.7039 8.86177 20.704L7.02801 20.7047C5.72412 20.7057 4.42024 20.7068 3.11635 20.6996C2.33964 20.6951 1.65891 20.4089 1.09635 19.8735C0.466112 19.2738 0.147662 18.5287 0.147662 17.6577C0.145442 13.3103 0.143778 8.96298 0.148771 4.61619C0.149881 3.83116 0.434489 3.14377 0.973191 2.57567C1.5768 1.93821 2.32966 1.62364 3.20789 1.62364C5.30926 1.62245 7.41091 1.62268 9.51263 1.62291H9.51267H9.51271H9.51275H9.51279L12.0352 1.62309C12.378 1.62309 12.6438 1.84334 12.707 2.17843C12.7764 2.54682 12.4868 2.92185 12.1123 2.94738C12.0768 2.94959 12.0413 2.94959 12.0058 2.94959H12.0058H3.17183C2.23534 2.94959 1.47528 3.71021 1.47528 4.64726V17.6887C1.47528 18.5564 2.15157 19.2932 3.01593 19.367C3.08195 19.3725 3.14853 19.3759 3.2151 19.3759H9.3866H9.48979C9.30545 19.536 9.24009 19.7387 9.17462 19.9417L9.17301 19.9467C9.13528 20.0638 9.09617 20.1804 9.05705 20.2971C9.01794 20.4137 8.97883 20.5304 8.9411 20.6474ZM25.1448 10.0437C25.1448 9.99489 25.1426 9.94606 25.1382 9.8978C25.1054 9.54994 24.7559 9.27255 24.4097 9.32026C24.053 9.36908 23.8178 9.63815 23.8178 9.99877V17.6077C23.8178 17.6588 23.8161 17.7098 23.8133 17.7609C23.7612 18.6768 23.0194 19.377 22.1018 19.377H15.8976H15.8049C15.9375 19.5062 16.0191 19.6477 16.0707 19.8086C16.1145 19.9455 16.1602 20.082 16.2059 20.2185L16.206 20.2188C16.2518 20.3555 16.2976 20.4921 16.3414 20.6291C16.3603 20.6879 16.3858 20.7051 16.4479 20.7051C17.1192 20.7045 17.7903 20.7044 18.4614 20.7042H18.4615H18.4615H18.4615C19.6919 20.7039 20.9223 20.7036 22.1529 20.7007C22.3487 20.7007 22.5484 20.6779 22.7398 20.6363C24.1662 20.3251 25.1454 19.1007 25.1454 17.6394V10.0437H25.1448ZM9.15412 12.4055C8.40238 11.8873 7.89863 11.0407 7.84426 10.0864V10.0875C7.74495 8.34328 9.1164 6.91025 10.8179 6.87696C12.4551 6.85255 13.8238 8.12746 13.8981 9.76964C13.9481 10.872 13.4099 11.8429 12.5805 12.4104C12.6066 12.4071 12.6343 12.4071 12.6648 12.4132C13.3156 12.5408 13.9464 12.7283 14.5406 13.0268C15.0066 13.2609 15.4288 13.5544 15.7622 13.9616C16.0957 14.3683 16.2815 14.8288 16.2693 15.3614C16.2671 15.4551 16.2674 15.549 16.2676 15.643C16.2681 15.8087 16.2686 15.9745 16.2554 16.1392C16.2144 16.6463 15.7678 17.0818 15.2607 17.1289C15.1925 17.1356 15.1237 17.1389 15.0549 17.1389H10.8684H6.64203C6.02843 17.1389 5.55575 16.7256 5.47808 16.117C5.47044 16.0585 5.47124 15.9989 5.47204 15.9394C5.47228 15.9211 5.47253 15.9028 5.47253 15.8846C5.47286 15.8091 5.47217 15.7335 5.47147 15.658C5.46983 15.4782 5.46818 15.2984 5.4803 15.1195C5.5097 14.6923 5.6889 14.3212 5.95298 13.9899C6.28308 13.5766 6.70416 13.2781 7.17074 13.0401C7.78767 12.725 8.44454 12.5319 9.1225 12.4055C9.13249 12.4043 9.14303 12.4043 9.15412 12.4055ZM14.6943 14.7345C14.5256 14.5614 14.3281 14.426 14.1206 14.3056H14.1212C13.5353 13.9666 12.8951 13.7874 12.2327 13.6804C11.6462 13.5855 11.0554 13.5578 10.4623 13.5844C9.83763 13.6121 9.22236 13.6998 8.62263 13.8801C8.10057 14.0371 7.61014 14.2579 7.1835 14.6052C6.92664 14.8144 6.76519 15.0651 6.79959 15.4141C6.80835 15.5025 6.80613 15.592 6.80387 15.6825C6.80284 15.7237 6.80181 15.7652 6.80181 15.8069H14.9389C14.9389 15.7565 14.9384 15.7065 14.938 15.6569V15.6568C14.9369 15.5474 14.9358 15.4394 14.94 15.3314C14.9495 15.0929 14.8557 14.9004 14.6943 14.7345ZM10.8629 11.6127C11.8204 11.6077 12.545 10.8515 12.5722 9.96438H12.5727C12.6016 9.00958 11.8621 8.23176 10.8978 8.20458C9.98464 8.1785 9.19851 8.92359 9.16855 9.84343C9.13692 10.8099 9.87979 11.5855 10.8629 11.6127ZM19.1132 24.1071C14.8002 24.1071 10.4867 24.1071 6.17379 24.1077C6.11442 24.1077 6.0534 24.1127 5.9957 24.1254C5.66116 24.1998 5.43924 24.5066 5.47419 24.8422C5.5097 25.1823 5.79653 25.4358 6.14605 25.4358H12.6421H19.1581C19.5787 25.4358 19.8949 25.0381 19.8006 24.6286C19.7273 24.3107 19.4599 24.1066 19.1126 24.1066L19.1132 24.1071ZM9.43986 19.863C9.54527 19.5462 9.78106 19.3758 10.1145 19.3758L10.115 19.3747H15.1742C15.5098 19.3747 15.7428 19.5423 15.8488 19.8607L17.167 23.8131C17.1698 23.8217 17.1725 23.8304 17.1755 23.8399C17.1795 23.8527 17.184 23.867 17.1897 23.8846H17.1121C17.0084 23.8846 16.9046 23.8845 16.8009 23.8844C16.4897 23.8841 16.1784 23.8838 15.8671 23.8863C15.8072 23.8869 15.7833 23.868 15.765 23.8131C15.5907 23.2872 15.4158 22.7617 15.2409 22.2362C15.0785 21.7482 14.9161 21.2603 14.7542 20.7723C14.7365 20.719 14.7137 20.7012 14.6571 20.7012C13.3145 20.7029 11.9725 20.7029 10.6299 20.7012C10.5716 20.7012 10.5506 20.7218 10.5334 20.7734C10.359 21.2992 10.1841 21.8248 10.0092 22.3502C9.8468 22.8382 9.68441 23.3261 9.52253 23.8142C9.50588 23.8658 9.48536 23.8869 9.4271 23.8869C9.10265 23.8847 8.77819 23.8849 8.45373 23.8851C8.36099 23.8851 8.26824 23.8852 8.17549 23.8852C8.16008 23.8852 8.14495 23.8843 8.1255 23.8833C8.11763 23.8828 8.10907 23.8823 8.09949 23.8819C8.12656 23.8004 8.15317 23.7204 8.1795 23.6411C8.22924 23.4914 8.27798 23.3447 8.32695 23.1978C8.40097 22.9761 8.47499 22.7544 8.54901 22.5327C8.84613 21.6427 9.14317 20.753 9.43986 19.863Z" fill="url(#paint0_linear_695_1308)"/>
<defs>
<linearGradient id="paint0_linear_695_1308" x1="0.145508" y1="0.4375" x2="20.4322" y2="28.8063" gradientUnits="userSpaceOnUse">
<stop stop-color="#762CD4"/>
<stop offset="1" stop-color="#B684F4"/>
</linearGradient>
</defs>
</svg>
