<svg width="43" height="43" viewBox="0 0 43 43" fill="none" xmlns="http://www.w3.org/2000/svg">
<g filter="url(#filter0_d_5336_103)">
<circle cx="21.5" cy="17.5" r="17" fill="white"/>
</g>
<g clip-path="url(#clip0_5336_103)">
<g clip-path="url(#clip1_5336_103)">
<path d="M29.9405 14.7569C29.0585 10.8975 25.648 8.14386 21.6364 8.14386C17.6247 8.14386 14.2142 10.8975 13.3322 14.7569C12.4528 14.9538 11.7926 15.7373 11.7926 16.6751V19.3001C11.7926 20.3855 12.6759 21.2689 13.7614 21.2689H15.3764C16.2144 23.9286 18.7036 25.8626 21.6364 25.8626C22.7336 25.8626 23.7672 25.589 24.6774 25.1105C24.4215 25.3993 24.2614 25.7753 24.2614 26.1907C24.2614 27.095 24.9977 27.8314 25.902 27.8314C26.8063 27.8314 27.5426 27.095 27.5426 26.1907C27.5426 25.9696 27.4973 25.7589 27.4179 25.566C28.6792 24.3972 29.5553 22.8859 29.9399 21.2183C30.8193 21.0228 31.4801 20.2385 31.4801 19.3001V16.6751C31.4801 15.7373 30.8199 14.9538 29.9405 14.7569ZM21.6364 9.45636C24.9104 9.45636 27.7126 11.6233 28.5775 14.7064H27.8963C27.0583 12.0466 24.5691 10.1126 21.6364 10.1126C18.7036 10.1126 16.2144 12.0466 15.3764 14.7064H14.6952C15.5601 11.6233 18.3623 9.45636 21.6364 9.45636ZM26.3869 14.4557C25.6972 14.6217 24.9852 14.7064 24.2614 14.7064C22.0872 14.7064 20.0272 13.9464 18.3814 12.5637C19.2765 11.853 20.4065 11.4251 21.6364 11.4251C23.737 11.4251 25.5489 12.6687 26.3869 14.4557ZM13.7614 19.9564C13.3998 19.9564 13.1051 19.6617 13.1051 19.3001V16.6751C13.1051 16.3135 13.3998 16.0189 13.7614 16.0189H15.1073C15.0857 16.2348 15.0739 16.454 15.0739 16.6751V19.3001C15.0739 19.5213 15.0857 19.7405 15.1073 19.9564H13.7614ZM16.3864 19.3001V16.6751C16.3864 15.4827 16.7906 14.3848 17.4633 13.5028C19.3585 15.1244 21.742 16.0189 24.2614 16.0189C25.123 16.0189 25.9709 15.9106 26.7925 15.7039C26.8516 16.0189 26.8864 16.343 26.8864 16.6751V19.3001C26.8864 22.1948 24.5311 24.5501 21.6364 24.5501C18.7416 24.5501 16.3864 22.1948 16.3864 19.3001ZM25.902 26.5189C25.7209 26.5189 25.5739 26.3719 25.5739 26.1907C25.5739 26.0096 25.7209 25.8626 25.902 25.8626C26.0831 25.8626 26.2301 26.0096 26.2301 26.1907C26.2301 26.3719 26.0831 26.5189 25.902 26.5189ZM26.467 24.6564C26.2898 24.5915 26.1015 24.5501 25.902 24.5501C25.7517 24.5501 25.6086 24.577 25.4702 24.6151C26.6022 23.7961 27.4671 22.6299 27.8963 21.2689H28.5755C28.2074 22.5682 27.4783 23.7396 26.467 24.6564ZM30.1676 19.3001C30.1676 19.6617 29.8729 19.9564 29.5114 19.9564H28.1654C28.187 19.7405 28.1989 19.5213 28.1989 19.3001V16.6751C28.1989 16.454 28.187 16.2348 28.1654 16.0189H29.5114C29.8729 16.0189 30.1676 16.3135 30.1676 16.6751V19.3001Z" fill="url(#paint0_linear_5336_103)"/>
</g>
</g>
<defs>
<filter id="filter0_d_5336_103" x="0.5" y="0.5" width="42" height="42" filterUnits="userSpaceOnUse" color-interpolation-filters="sRGB">
<feFlood flood-opacity="0" result="BackgroundImageFix"/>
<feColorMatrix in="SourceAlpha" type="matrix" values="0 0 0 0 0 0 0 0 0 0 0 0 0 0 0 0 0 0 127 0" result="hardAlpha"/>
<feOffset dy="4"/>
<feGaussianBlur stdDeviation="2"/>
<feComposite in2="hardAlpha" operator="out"/>
<feColorMatrix type="matrix" values="0 0 0 0 0 0 0 0 0 0 0 0 0 0 0 0 0 0 0.25 0"/>
<feBlend mode="normal" in2="BackgroundImageFix" result="effect1_dropShadow_5336_103"/>
<feBlend mode="normal" in="SourceGraphic" in2="effect1_dropShadow_5336_103" result="shape"/>
</filter>
<linearGradient id="paint0_linear_5336_103" x1="11.7926" y1="17.9876" x2="31.4801" y2="17.9876" gradientUnits="userSpaceOnUse">
<stop stop-color="#181DBB"/>
<stop offset="1" stop-color="#4AD0DC"/>
</linearGradient>
<clipPath id="clip0_5336_103">
<rect width="21" height="21" fill="white" transform="translate(11.0818 7.59369)"/>
</clipPath>
<clipPath id="clip1_5336_103">
<rect width="21" height="21" fill="white" transform="translate(11.1364 7.48761)"/>
</clipPath>
</defs>
</svg>
