<?xml version="1.0" encoding="utf-8"?>
<!-- Generator: Adobe Illustrator 27.8.0, SVG Export Plug-In . SVG Version: 6.00 Build 0)  -->
<svg version="1.1"
	 id="Layer_1" image-rendering="optimizeQuality" shape-rendering="geometricPrecision" text-rendering="geometricPrecision"
	 xmlns="http://www.w3.org/2000/svg" xmlns:xlink="http://www.w3.org/1999/xlink" x="0px" y="0px" viewBox="0 0 36 36"
	 style="enable-background:new 0 0 36 36;" xml:space="preserve">
<style type="text/css">
	.st0{fill-rule:evenodd;clip-rule:evenodd;fill:#EAFAFF;}
	.st1{fill-rule:evenodd;clip-rule:evenodd;fill:#305FA5;}
	.st2{fill:none;}
</style>
<g>
	<g id="Layer_x0020_1">
		<g id="_394585576">
			<path class="st0" d="M11.1,32.4l-8.5,2.8L0,36l3.6-10.8c-0.6-1-1-2.3-1.4-3.5c-0.4-1.5-0.6-3.1-0.6-4.6c0-4.5,1.9-8.8,5-12.1
				c3.3-3.2,7.6-5,12.1-5s8.9,1.7,12.1,5c3.2,3.2,5,7.5,5,12.1c0,4.5-1.9,8.8-5,12.1c-3.3,3.2-7.6,5-12.1,5c-1.4,0-2.9-0.2-4.3-0.5
				C13.4,33.4,12.2,32.9,11.1,32.4z"/>
			<path class="st0" d="M34.7,17.1c0-4.3-1.7-8.2-4.6-11.1c-2.9-2.8-6.9-4.5-11.2-4.5c-4.4,0-8.3,1.7-11.2,4.6S3,12.9,3,17.2
				c0,1.4,0.2,2.9,0.6,4.2C4,22.7,4.5,24,5.2,25.2l-2.8,8.1l-0.2,0.6l0.6-0.2l8.4-2.7c1.1,0.6,2.3,1,3.6,1.4
				c1.2,0.3,2.6,0.5,3.9,0.5c4.4,0,8.3-1.7,11.2-4.6C32.8,25.4,34.7,21.5,34.7,17.1z"/>
			<path class="st1" d="M16.3,12.9c-0.1-0.1-0.5-1.1-0.8-1.9c-0.3-0.6-0.5-1.2-0.5-1.3c-0.4-1-0.9-0.9-1.2-0.9c0,0,0,0-0.1,0
				s-0.2,0-0.4,0s-0.3,0-0.5,0c-0.2,0-0.5,0-0.8,0.2c-0.2,0.1-0.4,0.2-0.6,0.5l-0.1,0.1c-0.5,0.5-1.5,1.6-1.5,3.8
				c0,2.3,1.6,4.4,1.9,4.7l0,0l0,0l0,0c0,0,0,0.1,0.1,0.1c0.6,0.9,3.4,4.9,7.6,6.6c3.8,1.4,4.5,1.3,5.1,1.1c0.1,0,0.2,0,0.3-0.1
				c0.5,0,1.3-0.4,2-0.8s1-0.9,1.2-1.4c0.2-0.5,0.3-0.9,0.3-1.2c0.1-0.5,0-0.9-0.1-1.1l0,0c-0.1-0.2-0.4-0.3-0.8-0.5
				c-0.1,0-0.1-0.1-0.2-0.1l0,0c-0.3-0.1-1.1-0.6-2-0.9c-0.5-0.2-0.9-0.4-1.1-0.5c-0.2-0.1-0.4-0.2-0.7-0.1c-0.3,0-0.5,0.2-0.7,0.5
				l0,0c-0.1,0.2-0.3,0.4-0.5,0.6c-0.3,0.4-0.7,0.8-0.8,1l0,0c0.2,0,0.1,0,0.1,0c-0.1,0-0.2,0-0.3-0.1c-0.1,0-0.2-0.1-0.3-0.1
				c-0.6-0.3-1.7-0.8-3.2-1.9c-0.5-0.4-0.9-0.9-1.2-1.3c-0.6-0.7-0.9-1.3-1.1-1.6c-0.1-0.2,0-0.3,0.1-0.5l0,0
				c0.1-0.1,0.3-0.3,0.4-0.5c0.1-0.1,0.1-0.2,0.2-0.3l0,0c0.2-0.2,0.3-0.4,0.4-0.6c0,0,0-0.1,0.1-0.1l0,0c0.1-0.2,0.1-0.4,0.1-0.6
				C16.4,13.2,16.3,13,16.3,12.9L16.3,12.9z"/>
		</g>
	</g>
	<path class="st2" d="M0,0.1h36V36H0V0.1z"/>
</g>
</svg>
